<svg version="1.0" xmlns="http://www.w3.org/2000/svg" width="800.000000" height="800.000000" viewBox="0 0 800.000000 800.000000" preserveAspectRatio="xMidYMid meet">
  <metadata>
    <rdf:RDF xmlns:rdf="http://www.w3.org/1999/02/22-rdf-syntax-ns#" xmlns:rdfs="http://www.w3.org/2000/01/rdf-schema#" xmlns:dc="http://purl.org/dc/elements/1.1/">
      <rdf:Description dc:format="image/svg+xml" dc:Label="1" dc:ContentProducer="001191330110MACRLGPT8B00000" dc:ProduceID="343973291" dc:ReservedCode1="LrE0sMib0wUT7LY91tQCyKuO4IAlIBHKZrZV9T4QYRc=" dc:ContentPropagator="001191330110MACRLGPT8B00000" dc:PropagateID="343973291" dc:ReservedCode2="LrE0sMib0wUT7LY91tQCyKuO4IAlIBHKZrZV9T4QYRc="/>
    </rdf:RDF>
  </metadata>
  <g transform="translate(0.000000,800.000000) scale(0.100000,-0.100000)" fill="#000000" stroke="none">
    <path d="M3897 6509 c-46 -11 -109 -42 -127 -64 -22 -27 2 -62 52 -76 24 -6 49 -13 56 -15 8 -2 12 -26 12 -73 0 -80 6 -75 -105 -86 -179 -19 -427 -95 -621 -190 -167 -82 -256 -140 -458 -297 -20 -15 -23 -15 -54 13 -17 16 -32 32 -32 35 0 12 92 115 238 266 142 148 163 176 154 210 -5 21 -149 119 -217 148 -178 76 -381 65 -568 -32 -69 -36 -106 -66 -230 -188 -234 -229 -319 -376 -342 -595 -19 -176 105 -410 236 -445 38 -11 48 -10 76 6 18 11 118 101 222 202 104 100 193 182 197 182 4 0 15 -7 25 -16 17 -15 12 -21 -77 -106 -263 -251 -497 -706 -615 -1194 -150 -623 7 -1270 437 -1801 148 -181 375 -377 567 -488 l87 -50 -7 -40 c-25 -135 32 -242 156 -299 35 -15 67 -20 131 -21 73 0 93 4 142 28 51 25 110 77 119 106 3 8 32 6 99 -8 309 -63 692 -52 987 29 265 73 507 200 711 374 37 31 121 92 187 135 66 43 149 101 184 130 35 28 67 51 71 51 6 0 139 -152 153 -176 4 -7 0 -29 -9 -49 -19 -47 -20 -141 -1 -187 39 -94 131 -153 237 -151 76 0 125 19 181 70 119 108 126 289 14 392 -42 39 -118 70 -174 72 -21 0 -45 24 -117 112 l-91 112 31 38 c279 341 437 716 487 1157 25 224 -2 557 -66 797 -53 201 -171 469 -279 632 -31 47 -56 86 -56 87 0 1 21 -9 46 -23 55 -31 166 -43 214 -23 54 22 125 112 159 199 63 164 63 322 1 477 -40 101 -69 144 -167 245 -186 193 -397 294 -638 306 -138 6 -229 -12 -342 -67 -93 -46 -193 -132 -224 -191 -11 -22 -19 -58 -19 -85 0 -40 -2 -45 -17 -39 -199 86 -525 165 -682 165 -47 0 -47 0 -55 91 l-5 66 44 21 c48 23 67 60 45 87 -32 39 -253 60 -363 34z m-1208 -149 c82 -23 123 -42 210 -99 l60 -38 -47 -33 c-221 -156 -642 -566 -844 -822 -38 -49 -76 -88 -83 -88 -17 0 -45 27 -45 44 0 31 84 138 175 224 l100 93 -95 -41 c-52 -23 -110 -48 -128 -55 -18 -8 -37 -25 -42 -37 -6 -17 -9 -5 -10 47 -1 70 -1 70 -19 48 -11 -13 -22 -23 -25 -23 -3 0 -6 32 -6 72 0 77 -6 79 -32 15 l-17 -42 0 45 c-2 217 169 491 387 619 62 36 161 74 222 84 68 11 170 6 239 -13z m1431 -24 c0 -13 3 -44 6 -70 l7 -46 -91 0 c-103 0 -102 -1 -102 86 l0 54 90 0 c88 0 90 -1 90 -24z m1634 -11 c193 -59 435 -270 506 -442 79 -188 73 -353 -17 -525 l-35 -66 -88 117 c-196 261 -634 649 -865 767 -42 21 -61 37 -63 52 -5 30 16 35 66 18 47 -17 175 -101 233 -154 22 -19 42 -33 44 -30 3 3 -11 29 -31 58 l-36 53 30 -5 c30 -4 31 -3 25 26 -8 45 -20 64 -44 71 -16 5 -18 10 -10 18 8 8 47 12 102 12 49 -1 89 1 89 2 0 2 -20 12 -45 23 -25 11 -45 22 -45 26 0 11 129 -4 184 -21z m-1396 -180 c624 -89 1182 -447 1534 -985 481 -733 489 -1668 20 -2366 -316 -469 -790 -779 -1347 -879 -139 -25 -443 -31 -595 -11 -468 62 -905 271 -1243 596 -185 177 -330 376 -447 615 -321 652 -303 1429 49 2042 153 267 356 487 609 657 255 172 560 290 857 330 137 19 434 19 563 1z m1254 -293 c19 -15 59 -49 88 -75 l54 -48 -71 -71 -71 -71 -84 72 c-46 40 -83 77 -83 83 0 14 108 137 121 138 6 0 27 -12 46 -28z m-2977 -202 c0 -4 -32 -41 -70 -82 l-71 -75 -69 64 -70 63 83 82 83 82 57 -64 c31 -35 57 -67 57 -70z m3199 -3257 c42 -51 76 -95 76 -98 0 -2 -17 -13 -37 -24 -21 -10 -47 -28 -57 -40 -11 -12 -24 -21 -30 -20 -6 0 -44 39 -84 86 l-74 86 58 58 c32 32 61 55 65 51 4 -4 41 -49 83 -99z m254 -162 c75 -38 106 -97 100 -192 -3 -56 -9 -75 -34 -111 -94 -133 -299 -128 -363 8 -52 110 5 248 123 300 46 20 130 17 174 -5z m-2711 -222 l23 -8 -28 -48 c-16 -26 -39 -64 -52 -84 l-24 -36 -48 36 c-26 20 -57 43 -69 52 l-22 15 25 40 c14 21 32 51 41 66 l17 27 57 -26 c32 -14 68 -29 80 -34z m-239 -129 c195 -104 226 -225 80 -305 -44 -24 -65 -29 -123 -29 -145 0 -245 82 -245 201 0 75 38 145 90 167 38 15 138 -2 198 -34z"/>
    <path d="M2436 6325 c-22 -22 -9 -47 23 -43 32 4 40 33 12 47 -15 8 -23 7 -35 -4z"/>
    <path d="M2343 6243 c-17 -6 -16 -30 1 -36 17 -7 40 18 31 33 -7 11 -13 11 -32 3z"/>
    <path d="M6135 5940 c-11 -18 32 -57 46 -43 6 6 9 19 7 29 -4 22 -42 31 -53 14z"/>
    <path d="M6220 5870 c0 -11 4 -20 9 -20 11 0 22 26 14 34 -12 12 -23 5 -23 -14z"/>
    <path d="M6170 5806 c0 -9 5 -16 10 -16 6 0 10 4 10 9 0 6 -4 13 -10 16 -5 3 -10 -1 -10 -9z"/>
    <path d="M3860 5816 c-522 -82 -952 -376 -1213 -828 -156 -272 -230 -554 -230 -878 0 -614 294 -1160 808 -1505 584 -391 1327 -414 1919 -58 380 228 665 638 756 1083 123 606 -87 1250 -553 1697 -246 236 -569 405 -903 474 -129 26 -457 35 -584 15z m185 -88 c5 -50 18 -220 80 -1088 13 -190 27 -366 29 -392 5 -46 4 -48 -34 -69 -124 -70 -133 -248 -17 -325 49 -32 118 -42 172 -24 44 14 100 62 120 101 13 24 32 33 132 64 65 21 192 61 283 90 173 56 647 204 883 275 76 24 140 41 141 39 2 -2 12 -49 22 -104 26 -140 27 -491 1 -620 -43 -220 -148 -469 -272 -645 -74 -106 -215 -253 -320 -335 -293 -229 -644 -347 -1034 -346 -807 1 -1522 559 -1711 1336 -43 179 -54 290 -47 499 8 257 54 446 162 671 98 203 231 380 392 520 280 245 592 372 995 404 13 1 18 -11 23 -51z m591 -450 c-47 -172 -134 -477 -191 -678 -58 -201 -110 -382 -115 -402 -10 -36 -11 -36 -38 -22 -15 7 -42 17 -60 20 -30 6 -33 9 -27 33 3 14 64 190 135 391 71 201 146 417 168 480 55 157 149 410 173 467 14 33 23 43 31 35 7 -7 -14 -98 -76 -324z m595 32 c27 -15 24 -29 -18 -81 -21 -25 -69 -85 -106 -133 -54 -69 -73 -87 -90 -84 -42 6 -30 37 57 152 88 115 123 156 132 156 3 0 14 -5 25 -10z m372 -462 c8 -12 7 -21 -2 -32 -24 -28 -316 -230 -335 -230 -10 -1 -23 7 -30 16 -8 14 -7 22 9 37 39 39 320 231 334 229 8 -2 19 -10 24 -20z m-243 -512 c0 -10 -167 -70 -579 -207 -245 -82 -446 -147 -447 -146 -2 2 -12 23 -23 47 -19 42 -19 46 -3 53 27 12 1004 256 1030 256 12 1 22 -1 22 -3z"/>
    <path d="M3300 5289 c-10 -17 2 -41 87 -172 81 -124 104 -152 123 -152 12 0 27 7 33 16 8 13 -5 41 -62 133 -103 163 -128 196 -151 196 -10 0 -24 -9 -30 -21z"/>
    <path d="M2820 4845 c-9 -11 -11 -21 -4 -32 16 -26 359 -214 377 -207 10 4 17 17 17 33 0 24 -16 36 -166 120 -92 52 -176 96 -188 98 -13 3 -28 -2 -36 -12z"/>
    <path d="M2730 4276 c0 -14 4 -27 9 -30 5 -3 71 -15 146 -26 104 -15 141 -17 151 -9 21 17 17 38 -8 49 -28 11 -216 40 -263 40 -30 0 -35 -3 -35 -24z"/>
    <path d="M5344 4006 c-3 -8 -4 -23 -2 -33 3 -17 18 -18 197 -18 170 0 195 2 204 17 8 12 7 21 -2 32 -19 23 -389 24 -397 2z"/>
    <path d="M2850 3789 c-80 -10 -155 -23 -167 -28 -27 -12 -31 -49 -6 -58 19 -7 317 23 376 38 29 8 37 14 37 33 0 42 -20 43 -240 15z"/>
    <path d="M5420 3625 c-21 -25 -4 -43 89 -90 89 -44 114 -48 125 -18 9 24 -10 40 -97 83 -89 44 -99 47 -117 25z"/>
    <path d="M3080 3304 c-120 -91 -132 -102 -128 -121 7 -35 52 -18 161 61 85 62 107 83 105 100 -6 41 -47 29 -138 -40z"/>
    <path d="M5086 3224 c-9 -8 -16 -21 -16 -28 0 -17 278 -236 300 -236 29 0 45 26 29 50 -16 23 -276 230 -289 230 -5 0 -16 -7 -24 -16z"/>
    <path d="M3608 3058 c-28 -23 -189 -310 -186 -332 2 -16 10 -21 32 -21 25 0 34 10 84 95 30 52 73 126 95 163 38 65 39 69 22 87 -21 23 -26 24 -47 8z"/>
    <path d="M4632 2908 c-7 -7 -12 -18 -12 -24 0 -22 139 -309 155 -319 22 -14 50 7 48 37 -1 13 -33 90 -71 171 -72 149 -88 167 -120 135z"/>
    <path d="M4077 2856 c-16 -12 -54 -323 -44 -351 10 -24 56 -19 66 8 10 24 31 226 31 299 0 37 -4 47 -20 51 -10 3 -26 0 -33 -7z"/>
    <path d="M5806 2084 c-12 -32 -5 -91 17 -134 36 -72 124 -107 194 -78 28 11 28 11 -20 19 -27 4 -60 15 -75 25 -37 23 -72 56 -72 66 0 5 10 7 23 3 20 -5 19 -4 -6 15 -15 12 -25 26 -22 31 5 8 -21 69 -29 69 -2 0 -7 -7 -10 -16z"/>
  </g>
</svg>