<?xml version="1.0" standalone="no"?><!DOCTYPE svg PUBLIC "-//W3C//DTD SVG 1.1//EN" "http://www.w3.org/Graphics/SVG/1.1/DTD/svg11.dtd"><svg t="1767000391233" class="icon" viewBox="0 0 1024 1024" version="1.1" xmlns="http://www.w3.org/2000/svg" p-id="5519" xmlns:xlink="http://www.w3.org/1999/xlink" width="200" height="200"><path d="M511.971571 931.494285c-235.134872 0-426.432484-191.297612-426.432484-426.432484s191.297612-426.432484 426.432484-426.432484S938.432484 269.92693 938.432484 505.061801s-191.297612 426.432484-426.460913 426.432484z m0-796.007303c-203.77787 0-369.57482 165.79695-369.574819 369.574819s165.79695 369.57482 369.574819 369.57482c203.806299 0 369.603248-165.79695 369.603249-369.57482s-165.79695-369.57482-369.603249-369.574819z" fill="#FF811C" p-id="5520"></path><path d="M323.147267 825.397883a28.315117 28.315117 0 0 1 10.575526 38.577926l-84.319917 145.982054a28.201402 28.201402 0 0 1-38.663212 10.149093 28.286688 28.286688 0 0 1-10.575525-38.577926l84.291487-145.982053a28.315117 28.315117 0 0 1 38.691641-10.149094zM705.770921 825.22731a28.144544 28.144544 0 0 0-10.348095 38.435782l84.490489 146.294771a28.172973 28.172973 0 0 0 38.492639 10.262808 28.059257 28.059257 0 0 0 10.262809-38.435781l-84.462061-146.294771a28.059257 28.059257 0 0 0-38.435781-10.262809zM113.967919 196.694258a28.428832 28.428832 0 0 1-22.202918-46.196853A484.882163 484.882163 0 0 1 292.813703 2.440047a28.428832 28.428832 0 1 1 20.781477 52.906057A428.138214 428.138214 0 0 0 136.170837 186.033446a28.315117 28.315117 0 0 1-22.202918 10.660812zM906.39319 196.694258a28.371975 28.371975 0 0 1-22.231347-10.660812 427.768639 427.768639 0 0 0-177.395913-130.687342 28.371975 28.371975 0 0 1-16.06229-36.843767 28.371975 28.371975 0 0 1 36.843766-16.06229 484.740019 484.740019 0 0 1 201.048702 148.057358 28.48569 28.48569 0 0 1-22.202918 46.196853zM540.428832 505.061801a28.428832 28.428832 0 0 1-28.428832 28.428833h-142.144161a28.428832 28.428832 0 1 1 0-56.857665h142.144161a28.428832 28.428832 0 0 1 28.428832 28.428832z" fill="#FF811C" p-id="5521"></path><path d="M511.971571 192.344646c15.692715 0 28.457261 12.736117 28.457261 28.428833v284.288322c0 15.721144-12.792975 28.428832-28.457261 28.428833a28.428832 28.428832 0 0 1-28.428832-28.428833v-284.288322a28.428832 28.428832 0 0 1 28.428832-28.428833z" fill="#FF811C" p-id="5522"></path></svg>